<svg xmlns="http://www.w3.org/2000/svg" width="17" height="18" viewBox="0 0 17 18" fill="none">
  <g clip-path="url(#clip0_16_540)">
    <path fill-rule="evenodd" clip-rule="evenodd" d="M0.929688 5.34681C1.29055 4.59584 1.77799 3.90981 2.37152 3.31754C3.69968 1.95321 5.30795 1.07945 7.21122 0.781785C9.87566 0.364794 12.2607 0.980668 14.3209 2.71891C14.4515 2.82896 14.4833 2.89326 14.3419 3.02916C13.6145 3.72658 12.8987 4.43593 12.1768 5.1413C12.103 5.21356 12.0529 5.30173 11.9217 5.18373C10.1077 3.55554 7.14627 3.57344 5.21797 5.33024C4.56847 5.92489 4.07442 6.66385 3.77749 7.48481C3.73284 7.4563 3.68547 7.43045 3.64217 7.39863L0.929688 5.34681Z" fill="#E34033"/>
    <path fill-rule="evenodd" clip-rule="evenodd" d="M3.75884 10.8086C4.01866 11.4556 4.34207 12.0682 4.82245 12.5873C6.04394 13.9092 7.56019 14.4782 9.37122 14.2944C10.1987 14.2051 10.9947 13.9331 11.6994 13.4988C11.7671 13.5591 11.8347 13.6235 11.9064 13.6791C12.7459 14.3218 13.586 14.9626 14.4268 15.6017C13.5161 16.4497 12.3952 17.05 11.175 17.3432C8.27311 18.0619 5.59784 17.6084 3.22231 15.7707C2.24488 15.0211 1.45757 14.0602 0.921875 12.9632L3.75884 10.8086Z" fill="#32A350"/>
    <path fill-rule="evenodd" clip-rule="evenodd" d="M14.423 15.6051C13.5827 14.9642 12.7426 14.3234 11.9027 13.6825C11.8296 13.6268 11.7674 13.5625 11.6957 13.5022C12.2647 13.0766 12.7397 12.5741 13.0489 11.9337C13.1673 11.6775 13.2656 11.4129 13.3432 11.1421C13.4 10.9565 13.3824 10.8842 13.1477 10.8862C11.7484 10.8975 10.3499 10.8915 8.95275 10.8915C8.6564 10.8915 8.65639 10.8915 8.65639 10.5912C8.65639 9.66309 8.66114 8.73497 8.65234 7.80685C8.65234 7.62786 8.68279 7.55891 8.88848 7.55958C11.4681 7.56665 14.0482 7.56665 16.6287 7.55958C16.7681 7.55958 16.8561 7.56952 16.8798 7.73592C17.2011 9.94684 16.9474 12.0596 15.7627 14.0107C15.4091 14.611 14.9564 15.1498 14.423 15.6051Z" fill="#4082ED"/>
    <path fill-rule="evenodd" clip-rule="evenodd" d="M3.75857 10.8096L0.922951 12.9669C0.472886 12.1308 0.183884 11.2206 0.0704319 10.2819C-0.151703 8.6808 0.101515 7.05085 0.799806 5.58698C0.838372 5.50544 0.887764 5.42787 0.935125 5.34766L3.6503 7.39682C3.69293 7.42864 3.74029 7.45449 3.78562 7.483C3.40064 8.58945 3.41959 9.69856 3.75857 10.8096Z" fill="#F2B605"/>
  </g>
  <defs>
    <clipPath id="clip0_16_540">
      <rect width="17.0171" height="17.0171" fill="white" transform="translate(-0.0078125 0.491211)"/>
    </clipPath>
  </defs>
</svg>