<svg xmlns="http://www.w3.org/2000/svg" width="59" height="71" viewBox="0 0 59 71" fill="none">
  <path d="M17.0321 26V10.6667C16.5321 4 21.9034 3 30.4438 3C38.9842 3 42.0321 5 42.0321 10.6667V26" stroke="white" stroke-width="5"/>
  <path fill-rule="evenodd" clip-rule="evenodd" d="M6 27C3.23858 27 1 29.2386 1 32V66C1 68.7614 3.23858 71 6 71H54C56.7614 71 59 68.7614 59 66V32C59 29.2386 56.7614 27 54 27H6ZM32 52.5018C34.349 51.5223 36 49.204 36 46.5C36 42.9101 33.0899 40 29.5 40C25.9101 40 23 42.9101 23 46.5C23 49.204 24.651 51.5223 27 52.5018V57C27 57.5523 27.4477 58 28 58H31C31.5523 58 32 57.5523 32 57V52.5018Z" fill="white"/>
</svg>