<svg width="25" height="25" viewBox="0 0 25 25" fill="none" xmlns="http://www.w3.org/2000/svg">
<path d="M21.0239 13.7784C20.6439 13.7784 20.3239 13.4884 20.2739 13.1084C20.0339 10.8484 18.8139 8.79835 16.9339 7.49835C16.5939 7.25835 16.5139 6.79835 16.7439 6.45835C16.9839 6.11835 17.4539 6.03835 17.7839 6.26835C20.0239 7.81835 21.4639 10.2584 21.7539 12.9484C21.7939 13.3584 21.5039 13.7284 21.0839 13.7784C21.0739 13.7784 21.0439 13.7784 21.0239 13.7784Z" fill="white"/>
<path d="M3.8942 13.8283C3.8642 13.8283 3.8442 13.8283 3.8142 13.8283C3.4042 13.7783 3.1042 13.4083 3.1442 12.9983C3.4142 10.3083 4.8442 7.87827 7.0542 6.30827C7.3942 6.06827 7.8642 6.14827 8.1042 6.48827C8.3442 6.82827 8.2642 7.29827 7.9242 7.53827C6.0642 8.84827 4.8642 10.8983 4.6342 13.1583C4.6042 13.5383 4.2742 13.8283 3.8942 13.8283Z" fill="white"/>
<path d="M12.4623 23.318C10.9823 23.318 9.57231 22.978 8.25231 22.318C7.88231 22.128 7.73231 21.678 7.92231 21.308C8.11231 20.938 8.56231 20.788 8.93231 20.978C11.0923 22.068 13.6923 22.088 15.8723 21.038C16.2423 20.858 16.6923 21.018 16.8723 21.388C17.0523 21.758 16.8923 22.208 16.5223 22.388C15.2423 23.008 13.8823 23.318 12.4623 23.318Z" fill="white"/>
<path d="M12.4636 9.14789C10.5136 9.14789 8.93359 7.56789 8.93359 5.61789C8.93359 3.66789 10.5136 2.08789 12.4636 2.08789C14.4136 2.08789 15.9936 3.66789 15.9936 5.61789C15.9936 7.56789 14.4036 9.14789 12.4636 9.14789ZM12.4636 3.59789C11.3436 3.59789 10.4336 4.50789 10.4336 5.62789C10.4336 6.74789 11.3436 7.65789 12.4636 7.65789C13.5836 7.65789 14.4936 6.74789 14.4936 5.62789C14.4936 4.50789 13.5736 3.59789 12.4636 3.59789Z" fill="white"/>
<path d="M5.23312 21.3784C3.28312 21.3784 1.70312 19.7984 1.70312 17.8484C1.70312 15.9084 3.28312 14.3184 5.23312 14.3184C7.18313 14.3184 8.76312 15.8984 8.76312 17.8484C8.76312 19.7884 7.18313 21.3784 5.23312 21.3784ZM5.23312 15.8184C4.11312 15.8184 3.20312 16.7284 3.20312 17.8484C3.20312 18.9684 4.11312 19.8784 5.23312 19.8784C6.35313 19.8784 7.26313 18.9684 7.26313 17.8484C7.26313 16.7284 6.35313 15.8184 5.23312 15.8184Z" fill="white"/>
<path d="M19.573 21.3784C17.623 21.3784 16.043 19.7984 16.043 17.8484C16.043 15.9084 17.623 14.3184 19.573 14.3184C21.523 14.3184 23.103 15.8984 23.103 17.8484C23.093 19.7884 21.513 21.3784 19.573 21.3784ZM19.573 15.8184C18.453 15.8184 17.543 16.7284 17.543 17.8484C17.543 18.9684 18.453 19.8784 19.573 19.8784C20.693 19.8784 21.603 18.9684 21.603 17.8484C21.593 16.7284 20.693 15.8184 19.573 15.8184Z" fill="white"/>
</svg>
